<svg xmlns="http://www.w3.org/2000/svg" viewBox="0 0 760 360" role="img" aria-labelledby="t d"><title id="t">De la complejidad a la capacidad real</title><desc id="d">Seis flujos desordenados atraviesan un plano y convergen en una salida azul única.</desc><defs><linearGradient id="glass" x1="0" x2="1"><stop stop-color="#d8d8d3" stop-opacity=".08"/><stop offset="1" stop-color="#d9cfb0" stop-opacity=".28"/></linearGradient></defs><rect width="760" height="360" fill="#f2efe9"/><g font-family="Arial,Helvetica,sans-serif" font-size="11" fill="#5d5d59"><text x="6" y="58">Tareas manuales</text><text x="6" y="104">Información dispersa</text><text x="6" y="150">Herramientas aisladas</text><text x="6" y="196">Leads sin seguimiento</text><text x="6" y="242">Datos copiados a mano</text><text x="6" y="288">Dependencia de personas</text></g><g fill="#111719"><circle cx="142" cy="54" r="2.5"/><circle cx="142" cy="100" r="2.5"/><circle cx="142" cy="146" r="2.5"/><circle cx="142" cy="192" r="2.5"/><circle cx="142" cy="238" r="2.5"/><circle cx="142" cy="284" r="2.5"/></g><g fill="none" stroke="#7d8586" stroke-opacity=".24" stroke-width="1"><path d="M146 54C230 48 310 88 390 178"/><path d="M146 54C240 68 320 110 390 178"/><path d="M146 100C235 94 302 126 390 178"/><path d="M146 100C240 120 322 146 390 178"/><path d="M146 146C230 134 306 150 390 178"/><path d="M146 146C250 160 325 166 390 178"/><path d="M146 192C245 184 322 181 390 178"/><path d="M146 192C240 208 314 197 390 178"/><path d="M146 238C232 228 305 205 390 178"/><path d="M146 238C242 250 318 218 390 178"/><path d="M146 284C238 270 310 230 390 178"/><path d="M146 284C260 300 326 240 390 178"/><path d="M165 70C248 100 312 118 390 178"/><path d="M170 270C250 245 320 220 390 178"/></g><path d="M390 18L425 0V360L390 342Z" fill="url(#glass)" stroke="#afb3b1" stroke-opacity=".45"/><path d="M424 0V360" stroke="#111719" stroke-width="4"/><g fill="none" stroke="#b09a5e" stroke-opacity=".24" stroke-width="1"><path d="M426 178C500 120 575 126 676 178"/><path d="M426 178C500 130 580 140 676 178"/><path d="M426 178C510 142 585 151 676 178"/><path d="M426 178C520 155 592 162 676 178"/><path d="M426 178C525 169 595 171 676 178"/><path d="M426 178C525 187 595 185 676 178"/><path d="M426 178C520 201 592 194 676 178"/><path d="M426 178C510 214 585 205 676 178"/><path d="M426 178C500 226 580 216 676 178"/><path d="M426 178C500 236 575 230 676 178"/></g><circle cx="676" cy="178" r="4" fill="#8a7443"/><g font-family="Arial,Helvetica,sans-serif" fill="#101719"><text x="694" y="174" font-size="12" letter-spacing="1">CAPACIDAD</text><text x="694" y="190" font-size="12" font-weight="700">REAL</text></g></svg>