<svg xmlns="http://www.w3.org/2000/svg" viewBox="0 0 760 500" role="img" aria-labelledby="title desc">
<title id="title">Capacidad liberada</title><desc id="desc">Líneas discretas y dispersas convergen en un núcleo dorado y continúan ordenadas.</desc>
<defs><radialGradient id="g" cx="35%" cy="30%" r="70%"><stop offset="0" stop-color="#eee7cf"/><stop offset=".48" stop-color="#c8b98a"/><stop offset="1" stop-color="#aa9965"/></radialGradient></defs>
<g fill="none" stroke="#686b6b" stroke-width="1" opacity=".28">
<path id="a" d="M70 92L174 108 270 144 354 216 430 250"/><path d="M86 144L184 150 278 174 360 222 430 250"/><path d="M58 198L166 194 270 206 356 230 430 250"/><path id="c" d="M78 246L180 242 280 240 360 242 430 250"/><path d="M64 300L172 292 270 278 358 262 430 250"/><path d="M90 350L190 334 282 306 362 274 430 250"/><path id="d" d="M72 406L170 382 264 344 356 284 430 250"/>
</g>
<g fill="none" stroke="#686b6b" stroke-width="1" opacity=".36"><path id="e" d="M430 230H690"/><path d="M430 240H690"/><path id="f" d="M430 250H690"/><path d="M430 260H690"/><path d="M430 270H690"/></g>
<g fill="#686b6b" opacity=".42"><circle cx="174" cy="108" r="2.5"/><circle cx="278" cy="174" r="3"/><circle cx="166" cy="194" r="2"/><circle cx="270" cy="278" r="2.5"/><circle cx="190" cy="334" r="2"/></g>
<circle cx="430" cy="250" r="27" fill="#c8b98a" opacity=".06"><animate attributeName="r" values="26;30;26" dur="6.5s" repeatCount="indefinite"/><animate attributeName="opacity" values=".04;.09;.04" dur="6.5s" repeatCount="indefinite"/></circle><circle cx="430" cy="250" r="13" fill="url(#g)"/>
<g fill="#686b6b" opacity=".62"><circle r="2.5"><animateMotion dur="7.8s" repeatCount="indefinite"><mpath href="#a"/></animateMotion></circle><circle r="2"><animateMotion dur="8.8s" begin="2.1s" repeatCount="indefinite"><mpath href="#c"/></animateMotion></circle><circle r="2.5"><animateMotion dur="9.6s" begin="4.2s" repeatCount="indefinite"><mpath href="#d"/></animateMotion></circle></g>
<g fill="#686b6b" opacity=".48"><circle r="2"><animateMotion dur="7.4s" begin="1.8s" repeatCount="indefinite"><mpath href="#e"/></animateMotion></circle><circle r="2"><animateMotion dur="8.2s" begin="4.6s" repeatCount="indefinite"><mpath href="#f"/></animateMotion></circle></g>
<style>@media(prefers-reduced-motion:reduce){animate,animateMotion{display:none}}</style>
</svg>