<svg xmlns="http://www.w3.org/2000/svg" viewBox="0 0 640 400"><rect width="640" height="400" fill="#0d1113"/>
<polygon points="298.3,147.0 514.9,272.0 341.7,372.0 125.1,247.0" fill="#24211d" stroke="#6f6658" stroke-width="0.8" stroke-linejoin="round"/>
<polygon points="276.7,159.5 298.3,172.0 276.7,184.5 255.0,172.0" fill="#2d2924"/>
<polygon points="233.4,184.5 255.0,197.0 233.4,209.5 211.7,197.0" fill="#2d2924"/>
<polygon points="190.1,209.5 211.7,222.0 190.1,234.5 168.4,222.0" fill="#2d2924"/>
<polygon points="146.8,234.5 168.4,247.0 146.8,259.5 125.1,247.0" fill="#2d2924"/>
<polygon points="320.0,159.5 341.7,172.0 320.0,184.5 298.3,172.0" fill="#2d2924"/>
<polygon points="276.7,184.5 298.3,197.0 276.7,209.5 255.0,197.0" fill="#2d2924"/>
<polygon points="233.4,209.5 255.0,222.0 233.4,234.5 211.7,222.0" fill="#2d2924"/>
<polygon points="190.1,234.5 211.7,247.0 190.1,259.5 168.4,247.0" fill="#2d2924"/>
<polygon points="320.0,184.5 341.7,197.0 320.0,209.5 298.3,197.0" fill="#2d2924"/>
<polygon points="276.7,209.5 298.3,222.0 276.7,234.5 255.0,222.0" fill="#2d2924"/>
<polygon points="233.4,234.5 255.0,247.0 233.4,259.5 211.7,247.0" fill="#2d2924"/>
<polygon points="190.1,259.5 211.7,272.0 190.1,284.5 168.4,272.0" fill="#2d2924"/>
<polygon points="363.3,184.5 385.0,197.0 363.3,209.5 341.7,197.0" fill="#2d2924"/>
<polygon points="320.0,209.5 341.7,222.0 320.0,234.5 298.3,222.0" fill="#2d2924"/>
<polygon points="276.7,234.5 298.3,247.0 276.7,259.5 255.0,247.0" fill="#2d2924"/>
<polygon points="233.4,259.5 255.0,272.0 233.4,284.5 211.7,272.0" fill="#2d2924"/>
<polygon points="363.3,209.5 385.0,222.0 363.3,234.5 341.7,222.0" fill="#2d2924"/>
<polygon points="320.0,234.5 341.7,247.0 320.0,259.5 298.3,247.0" fill="#2d2924"/>
<polygon points="276.7,259.5 298.3,272.0 276.7,284.5 255.0,272.0" fill="#2d2924"/>
<polygon points="233.4,284.5 255.0,297.0 233.4,309.5 211.7,297.0" fill="#2d2924"/>
<polygon points="406.6,209.5 428.3,222.0 406.6,234.5 385.0,222.0" fill="#2d2924"/>
<polygon points="363.3,234.5 385.0,247.0 363.3,259.5 341.7,247.0" fill="#2d2924"/>
<polygon points="320.0,259.5 341.7,272.0 320.0,284.5 298.3,272.0" fill="#2d2924"/>
<polygon points="276.7,284.5 298.3,297.0 276.7,309.5 255.0,297.0" fill="#2d2924"/>
<polygon points="406.6,234.5 428.3,247.0 406.6,259.5 385.0,247.0" fill="#2d2924"/>
<polygon points="363.3,259.5 385.0,272.0 363.3,284.5 341.7,272.0" fill="#2d2924"/>
<polygon points="320.0,284.5 341.7,297.0 320.0,309.5 298.3,297.0" fill="#2d2924"/>
<polygon points="276.7,309.5 298.3,322.0 276.7,334.5 255.0,322.0" fill="#2d2924"/>
<polygon points="449.9,234.5 471.6,247.0 449.9,259.5 428.3,247.0" fill="#2d2924"/>
<polygon points="406.6,259.5 428.3,272.0 406.6,284.5 385.0,272.0" fill="#2d2924"/>
<polygon points="363.3,284.5 385.0,297.0 363.3,309.5 341.7,297.0" fill="#2d2924"/>
<polygon points="320.0,309.5 341.7,322.0 320.0,334.5 298.3,322.0" fill="#2d2924"/>
<polygon points="449.9,259.5 471.6,272.0 449.9,284.5 428.3,272.0" fill="#2d2924"/>
<polygon points="406.6,284.5 428.3,297.0 406.6,309.5 385.0,297.0" fill="#2d2924"/>
<polygon points="363.3,309.5 385.0,322.0 363.3,334.5 341.7,322.0" fill="#2d2924"/>
<polygon points="320.0,334.5 341.7,347.0 320.0,359.5 298.3,347.0" fill="#2d2924"/>
<polygon points="493.2,259.5 514.9,272.0 493.2,284.5 471.6,272.0" fill="#2d2924"/>
<polygon points="449.9,284.5 471.6,297.0 449.9,309.5 428.3,297.0" fill="#2d2924"/>
<polygon points="406.6,309.5 428.3,322.0 406.6,334.5 385.0,322.0" fill="#2d2924"/>
<polygon points="363.3,334.5 385.0,347.0 363.3,359.5 341.7,347.0" fill="#2d2924"/>
<polygon points="298.3,147.0 514.9,272.0 514.9,147.0 298.3,22.0" fill="#2e2a26" stroke="#6f6658" stroke-width="0.8" stroke-linejoin="round"/>
<polygon points="298.3,147.0 125.1,247.0 125.1,122.0 298.3,22.0" fill="#282420" stroke="#6f6658" stroke-width="0.8" stroke-linejoin="round"/>
<line x1="298.3" y1="137.0" x2="397.9" y2="194.5" stroke="#3a352f" stroke-width="1"/>
<line x1="298.3" y1="127.0" x2="397.9" y2="184.5" stroke="#3a352f" stroke-width="1"/>
<line x1="298.3" y1="117.0" x2="397.9" y2="174.5" stroke="#3a352f" stroke-width="1"/>
<line x1="298.3" y1="107.0" x2="397.9" y2="164.5" stroke="#3a352f" stroke-width="1"/>
<line x1="298.3" y1="97.0" x2="397.9" y2="154.5" stroke="#3a352f" stroke-width="1"/>
<line x1="298.3" y1="87.0" x2="397.9" y2="144.5" stroke="#3a352f" stroke-width="1"/>
<line x1="298.3" y1="77.0" x2="397.9" y2="134.5" stroke="#3a352f" stroke-width="1"/>
<line x1="307.0" y1="152.0" x2="307.0" y2="77.0" stroke="#3a352f" stroke-width="1"/>
<line x1="315.7" y1="157.0" x2="315.7" y2="82.0" stroke="#3a352f" stroke-width="1"/>
<line x1="324.3" y1="162.0" x2="324.3" y2="87.0" stroke="#3a352f" stroke-width="1"/>
<line x1="333.0" y1="167.0" x2="333.0" y2="92.0" stroke="#3a352f" stroke-width="1"/>
<line x1="341.7" y1="172.0" x2="341.7" y2="97.0" stroke="#3a352f" stroke-width="1"/>
<line x1="350.3" y1="177.0" x2="350.3" y2="102.0" stroke="#3a352f" stroke-width="1"/>
<line x1="359.0" y1="182.0" x2="359.0" y2="107.0" stroke="#3a352f" stroke-width="1"/>
<line x1="367.6" y1="187.0" x2="367.6" y2="112.0" stroke="#3a352f" stroke-width="1"/>
<line x1="376.3" y1="192.0" x2="376.3" y2="117.0" stroke="#3a352f" stroke-width="1"/>
<line x1="385.0" y1="197.0" x2="385.0" y2="122.0" stroke="#3a352f" stroke-width="1"/>
<line x1="393.6" y1="202.0" x2="393.6" y2="127.0" stroke="#3a352f" stroke-width="1"/>
<line x1="298.3" y1="137.0" x2="237.7" y2="172.0" stroke="#35302a" stroke-width="1"/>
<line x1="298.3" y1="127.0" x2="237.7" y2="162.0" stroke="#35302a" stroke-width="1"/>
<line x1="298.3" y1="117.0" x2="237.7" y2="152.0" stroke="#35302a" stroke-width="1"/>
<line x1="298.3" y1="107.0" x2="237.7" y2="142.0" stroke="#35302a" stroke-width="1"/>
<line x1="298.3" y1="97.0" x2="237.7" y2="132.0" stroke="#35302a" stroke-width="1"/>
<line x1="298.3" y1="87.0" x2="237.7" y2="122.0" stroke="#35302a" stroke-width="1"/>
<line x1="298.3" y1="77.0" x2="237.7" y2="112.0" stroke="#35302a" stroke-width="1"/>
<line x1="289.7" y1="152.0" x2="289.7" y2="77.0" stroke="#35302a" stroke-width="1"/>
<line x1="281.0" y1="157.0" x2="281.0" y2="82.0" stroke="#35302a" stroke-width="1"/>
<line x1="272.4" y1="162.0" x2="272.4" y2="87.0" stroke="#35302a" stroke-width="1"/>
<line x1="263.7" y1="167.0" x2="263.7" y2="92.0" stroke="#35302a" stroke-width="1"/>
<line x1="255.0" y1="172.0" x2="255.0" y2="97.0" stroke="#35302a" stroke-width="1"/>
<line x1="246.4" y1="177.0" x2="246.4" y2="102.0" stroke="#35302a" stroke-width="1"/>
<line x1="237.7" y1="182.0" x2="237.7" y2="107.0" stroke="#35302a" stroke-width="1"/>
<polygon points="441.2,162.0 480.2,184.5 480.2,152.0 441.2,129.5" fill="#5b5446" stroke="#6f6658" stroke-width="0.8" stroke-linejoin="round"/>
<line x1="460.7" y1="173.2" x2="460.7" y2="140.8" stroke="#2e2a26" stroke-width="2"/>
<polygon points="298.3,177.0 376.3,222.0 376.3,177.0 298.3,132.0" fill="#46392b" stroke="#6f6658" stroke-width="0.8" stroke-linejoin="round"/>
<polygon points="402.3,207.0 376.3,222.0 376.3,177.0 402.3,162.0" fill="#4f4131" stroke="#6f6658" stroke-width="0.8" stroke-linejoin="round"/>
<polygon points="324.3,117.0 402.3,162.0 376.3,177.0 298.3,132.0" fill="#6b5a45" stroke="#6f6658" stroke-width="0.8" stroke-linejoin="round"/>
<polygon points="237.7,182.0 263.7,197.0 263.7,152.0 237.7,137.0" fill="#46392b" stroke="#6f6658" stroke-width="0.8" stroke-linejoin="round"/>
<polygon points="324.3,162.0 263.7,197.0 263.7,152.0 324.3,117.0" fill="#4f4131" stroke="#6f6658" stroke-width="0.8" stroke-linejoin="round"/>
<polygon points="298.3,102.0 324.3,117.0 263.7,152.0 237.7,137.0" fill="#6b5a45" stroke="#6f6658" stroke-width="0.8" stroke-linejoin="round"/>
<polygon points="291.9,85.8 378.5,135.8 378.5,103.2 291.9,53.2" fill="#3f3326" stroke="#6f6658" stroke-width="0.8" stroke-linejoin="round"/>
<polygon points="393.6,127.0 378.5,135.8 378.5,103.2 393.6,94.5" fill="#4a3c2d" stroke="#6f6658" stroke-width="0.8" stroke-linejoin="round"/>
<polygon points="307.0,44.5 393.6,94.5 378.5,103.2 291.9,53.2" fill="#4f4131" stroke="#6f6658" stroke-width="0.8" stroke-linejoin="round"/>
<polygon points="242.1,219.5 276.7,239.5 276.7,203.5 242.1,183.5" fill="#3a3026" stroke="#6f6658" stroke-width="0.8" stroke-linejoin="round"/>
<polygon points="302.7,224.5 276.7,239.5 276.7,203.5 302.7,188.5" fill="#433829" stroke="#6f6658" stroke-width="0.8" stroke-linejoin="round"/>
<polygon points="268.0,168.5 302.7,188.5 276.7,203.5 242.1,183.5" fill="#5a4c3b" stroke="#6f6658" stroke-width="0.8" stroke-linejoin="round"/>
<polygon points="294.0,269.5 300.1,273.0 300.1,148.0 294.0,144.5" fill="#37322d" stroke="#6f6658" stroke-width="0.8" stroke-linejoin="round"/>
<polygon points="408.3,210.5 300.1,273.0 300.1,148.0 408.3,85.5" fill="#433d37" stroke="#6f6658" stroke-width="0.8" stroke-linejoin="round"/>
<polygon points="402.3,82.0 408.3,85.5 300.1,148.0 294.0,144.5" fill="#3f3934" stroke="#6f6658" stroke-width="0.8" stroke-linejoin="round"/>
<polygon points="125.1,247.0 136.0,253.2 136.0,210.8 125.1,204.5" fill="#3a3834" stroke="#6f6658" stroke-width="0.8" stroke-linejoin="round"/>
<polygon points="187.9,223.2 136.0,253.2 136.0,210.8 187.9,180.8" fill="#44413c" stroke="#6f6658" stroke-width="0.8" stroke-linejoin="round"/>
<polygon points="177.1,174.5 187.9,180.8 136.0,210.8 125.1,204.5" fill="#4d4a45" stroke="#6f6658" stroke-width="0.8" stroke-linejoin="round"/>
<polygon points="136.0,253.2 164.1,269.5 164.1,248.5 136.0,232.2" fill="#3a3834" stroke="#6f6658" stroke-width="0.8" stroke-linejoin="round"/>
<polygon points="216.1,239.5 164.1,269.5 164.1,248.5 216.1,218.5" fill="#44413c" stroke="#6f6658" stroke-width="0.8" stroke-linejoin="round"/>
<polygon points="187.9,202.2 216.1,218.5 164.1,248.5 136.0,232.2" fill="#4d4a45" stroke="#6f6658" stroke-width="0.8" stroke-linejoin="round"/>
<polygon points="289.7,322.0 320.0,339.5 320.0,304.5 289.7,287.0" fill="#362f28" stroke="#6f6658" stroke-width="0.8" stroke-linejoin="round"/>
<polygon points="350.3,322.0 320.0,339.5 320.0,304.5 350.3,287.0" fill="#40372e" stroke="#6f6658" stroke-width="0.8" stroke-linejoin="round"/>
<polygon points="320.0,269.5 350.3,287.0 320.0,304.5 289.7,287.0" fill="#4a4036" stroke="#6f6658" stroke-width="0.8" stroke-linejoin="round"/>
<line x1="261.5" y1="98.2" x2="261.5" y2="128.2" stroke="#6f6658" stroke-width="1"/>
<circle cx="261.5" cy="128.2" r="4" fill="#a39777"/>
</svg>